<svg width="70" height="78" viewBox="0 0 70 78" fill="none" xmlns="http://www.w3.org/2000/svg">
<path d="M22.5656 0.000807394C20.2705 -0.0143107 17.7351 0.866446 15.0395 3.00339C14.2989 2.93876 13.5162 3.02601 12.7298 3.3741C12.7014 3.38922 12.6735 3.40181 12.6462 3.4192C9.70771 4.98944 8.69229 7.91702 9.43479 10.3115C10.1773 12.7059 12.5169 14.5918 15.4989 14.5918C15.5137 14.592 15.5284 14.592 15.5432 14.5918C15.5432 14.5918 15.6687 14.5892 15.8724 14.5766C17.297 16.7638 17.2947 19.4598 17.2754 20.0536C17.186 20.2853 17.0371 20.6775 16.87 21.1543C14.7976 20.6845 12.6723 21.9552 12.118 24.0242C11.5502 26.1432 12.8322 28.3508 14.951 28.9188C15.3221 29.0341 15.6827 29.1259 16.0346 29.2041C16.3426 31.2034 16.9885 32.8476 18.2337 34.1478L16.8626 38.0841C16.1631 37.7844 15.5697 37.4733 15.1721 37.1676C14.908 36.9639 14.5739 36.8743 14.2434 36.9171C13.9116 36.9598 13.6109 37.1322 13.4079 37.3986C13.0482 37.8759 13.0739 38.5402 13.4694 38.9883C10.0444 39.9816 6.84672 41.5722 4.44686 43.4627C0.662901 46.4211 -0.201002 50.4002 0.0363499 54.4313C0.280738 57.9611 1.72548 62.4191 6.1177 66.0657V74.2307C6.11768 76.3002 7.81986 77.9998 9.88936 77.9998H40.0799C42.1494 77.9998 43.8589 76.3002 43.8589 74.2307V57.4806C44.6078 57.3683 45.4522 57.2224 46.3381 57.0307C49.2494 56.4019 52.6556 55.3938 54.6776 53.1288C54.7516 53.0446 54.8151 52.9519 54.8643 52.851C54.8643 52.851 58.2494 45.9669 57.2157 36.4203C57.4398 36.3976 57.6697 36.3674 57.9013 36.3296C58.6573 36.2038 59.4497 36.0288 60.1569 35.4205C61.2933 34.4433 62.2442 33.0316 62.5894 31.4547H67.7641C68.4589 31.4519 69.0199 30.8865 69.0172 30.1917C69.0146 29.5008 68.4551 28.9413 67.7641 28.9386H67.7002C67.1088 23.0048 62.3691 18.2707 56.4343 17.6802V16.3557C56.4319 15.6643 55.8702 15.1026 55.1787 15.1002C54.4837 15.0977 53.9182 15.6607 53.9158 16.3557V17.6802C47.9856 18.2748 43.2508 23.0081 42.6598 28.9386H42.5959C41.9049 28.9413 41.3454 29.5008 41.3427 30.1917C41.34 30.8865 41.9011 31.452 42.5959 31.4547H48.8934V33.6833C48.8935 34.4802 49.235 35.2065 49.778 35.7203C48.6864 37.3145 46.8868 40.2569 45.8171 43.6985C45.7182 43.6191 45.62 43.5401 45.5223 43.4626C44.0102 42.2615 42.5861 41.4011 42.5861 41.4011C42.5238 41.3629 42.4595 41.3331 42.392 41.3078L36.5097 38.9883C36.9022 38.538 36.9238 37.8735 36.5612 37.3985C36.36 37.1343 36.0623 36.96 35.7332 36.9144C35.4026 36.8717 35.0686 36.9621 34.8044 37.165C34.4059 37.4716 33.8099 37.786 33.1066 38.0865L31.7453 34.1747C33.0537 32.8827 33.6252 31.2519 33.9321 29.204C34.2872 29.1265 34.6535 29.0358 35.028 28.919C37.1468 28.351 38.419 26.1459 37.8512 24.0269C37.297 21.9582 35.1807 20.6878 33.109 21.157C32.9879 20.8111 32.8735 20.5059 32.7871 20.2774C33.5982 17.9293 33.5262 15.3993 33.4063 14.0707C34.6541 13.774 35.9219 13.3096 36.9863 12.4835C38.1789 11.5578 39.0675 10.0668 39.0675 8.2473C39.0675 7.28923 38.8175 5.97737 38.1289 4.61564C37.4402 3.25392 36.2402 1.85119 34.3769 1.26426C32.425 0.788686 30.3707 1.32469 28.9933 2.31341C27.3753 1.20783 25.5056 0.240381 23.3075 0.0380629C23.0633 0.0153857 22.8157 0.00496487 22.5656 0.000807394ZM22.3543 2.51688C22.5996 2.5131 22.8409 2.52064 23.0767 2.5471C24.5329 2.68127 25.9007 3.3091 27.2169 4.15889C26.8881 4.66024 26.6272 5.23703 26.5117 5.90101C26.3913 6.58571 26.8491 7.23828 27.5339 7.35813C28.2177 7.4787 28.8699 7.02245 28.9909 6.33839C29.8335 4.25047 32.0875 3.34273 33.6619 3.69948C34.7038 4.04455 35.4077 4.8111 35.8831 5.75118C36.3658 6.70563 36.5515 7.82287 36.5515 8.25007C36.5515 9.33113 36.1688 9.93706 35.4458 10.4983C34.7227 11.0595 33.611 11.4718 32.4456 11.7146C30.1149 12.2003 27.6911 12.029 27.6911 12.029C26.9984 11.978 26.3957 12.4983 26.3446 13.1912C26.2938 13.8804 26.8083 14.4816 27.497 14.5377C27.497 14.5377 28.9816 14.658 30.8854 14.4811C30.9569 15.706 30.9688 17.8614 30.3743 19.55C28.6492 20.4387 26.4677 20.6128 24.9883 20.6213C23.1984 20.6175 21.4086 20.3779 19.8087 19.6828C19.8109 18.5734 19.6525 16.35 18.5433 14.169C20.0032 13.8205 21.7536 13.1868 23.2069 12.0313C23.7492 11.5996 23.8404 10.811 23.4108 10.2672C22.9801 9.72405 22.1911 9.63173 21.6466 10.0608C19.4962 11.7707 15.5261 12.0745 15.4793 12.078C13.5555 12.0667 12.251 10.9018 11.8378 9.56935C11.4278 8.24712 11.7736 6.80073 13.7986 5.68717C14.6796 5.32925 15.7036 5.60968 16.6489 6.16122C17.6126 6.72366 18.2927 7.4241 18.2927 7.4241C18.7704 7.92516 19.5633 7.94603 20.0667 7.47174C20.5726 6.99321 20.5936 6.19466 20.1133 5.69028C20.1133 5.69028 19.2362 4.76974 17.9461 4.00963C19.6228 2.93723 21.0601 2.53939 22.3542 2.52068L22.3543 2.51688ZM55.1788 20.1343C60.3276 20.1343 64.5554 23.9608 65.1694 28.9382H45.1907C45.8047 23.9608 50.03 20.1343 55.1788 20.1343ZM34.1214 26.5645C34.1209 26.4334 34.1214 26.3064 34.1189 26.1885C34.1015 25.4966 33.5283 24.9487 32.8363 24.9624C32.1404 24.9776 31.5866 25.5493 31.6003 26.245C31.6132 26.8456 31.601 27.6725 31.4898 28.5572C31.0444 31.73 29.8079 32.7411 27.3839 33.9997C25.4684 34.4756 23.9399 34.6806 22.5926 34.0636C20.0296 33.0386 18.7782 30.6108 18.4892 28.5646C18.3767 27.6759 18.3537 26.8481 18.3664 26.245C18.38 25.5502 17.8277 24.9759 17.1329 24.9624C16.4408 24.9473 15.8677 25.4966 15.8503 26.1885C15.8479 26.3049 15.8479 26.4319 15.8478 26.5623L15.5996 26.4958C14.7847 26.2777 14.3321 25.4898 14.5504 24.6751C14.7687 23.8602 15.5467 23.4076 16.3613 23.626H16.3711L17.3638 23.8936C18.0013 24.0648 18.6567 23.7152 18.8749 23.1049C18.9733 22.7836 19.0798 22.4687 19.1796 22.176C19.2357 22.1987 19.2922 22.2277 19.3516 22.2519C20.5026 22.7212 22.2878 23.134 24.9882 23.134C26.9618 23.0494 29.0377 22.8846 30.7944 22.1733L31.0622 23.0038C31.2412 23.6761 31.9309 24.076 32.6029 23.8958L33.6078 23.6255C34.4224 23.4074 35.2004 23.8595 35.4187 24.6748C35.637 25.4894 35.1844 26.277 34.3695 26.4954L34.1214 26.5645ZM51.3998 31.4542H59.9112C59.5886 32.2397 59.0504 33.0538 58.5131 33.5157C58.4645 33.5584 58.0244 33.7603 57.4836 33.8499C56.9428 33.9398 56.3141 33.9701 55.8496 33.9701H51.6873C51.5142 33.9701 51.3998 33.8555 51.3998 33.6824L51.3998 31.4542ZM29.6175 35.7001L30.7404 38.9361C28.8564 39.5196 26.9808 39.8973 24.9834 40.2384C22.8105 39.8767 21.2012 39.502 19.2288 38.9385L20.3444 35.7444C20.7282 35.9625 21.1331 36.1657 21.5533 36.3489C21.5565 36.3504 21.5599 36.3473 21.5632 36.3489C23.9721 37.5061 26.2565 37.0987 28.2761 36.3602L29.6175 35.7001ZM52.3163 36.4889H54.6874C55.6929 45.1847 52.8326 51.2021 52.6824 51.514C51.3901 52.8848 48.4675 53.9942 45.8099 54.5683C43.1052 55.1525 40.7851 55.3029 40.7851 55.3029C40.0969 55.3505 39.5755 55.9412 39.6155 56.6298C39.6578 57.3217 40.2503 57.849 40.9423 57.8092C40.9423 57.8092 41.1045 57.7979 41.3428 57.779V74.2293C41.3428 74.939 40.7896 75.4825 40.0799 75.4825H38.8267V57.0025C38.8267 52.2997 37.4342 48.2569 35.8905 45.2158C35.738 44.9195 35.4756 44.6962 35.1583 44.5941C34.8422 44.4913 34.499 44.5174 34.2025 44.6678C33.5817 44.9808 33.3316 45.7378 33.6447 46.3584C35.0569 49.1404 36.3082 52.7958 36.3082 57.0025V75.4814H9.88936C9.17967 75.4814 8.63377 74.938 8.63378 74.2284V67.1052L20.3075 69.0734L20.31 69.062C20.3214 69.0646 20.3328 69.0658 20.3443 69.0734L24.7376 69.695C26.7711 69.9829 28.6297 68.368 28.6296 66.314V63.1198C28.6297 61.0658 26.7712 59.4531 24.7376 59.7413L20.9807 60.272C20.3906 59.7524 19.667 59.4035 18.8602 59.0435C17.0888 58.2943 15.3772 57.7477 13.5774 57.2743C14.6178 56.6249 15.9218 56 17.1328 55.9524C17.8243 55.9222 18.3629 55.3417 18.3393 54.6501C18.3118 53.9548 17.7249 53.4148 17.0296 53.4437C15.4415 53.5061 13.9857 54.0608 12.8034 54.714C12.8629 54.0579 12.8859 53.4065 12.8968 52.7851C12.9374 50.4663 12.6658 48.4926 12.6658 48.4926C12.567 47.8066 11.9319 47.3298 11.2456 47.4262C10.5546 47.5188 10.0709 48.1559 10.1669 48.8464C10.1669 48.8464 10.4174 50.6465 10.3807 52.7385C10.344 54.8306 9.87021 57.1418 9.12756 57.9378C8.64768 58.4445 8.67194 59.2448 9.18162 59.7216C9.69165 60.1982 10.4923 60.1686 10.9655 59.6551C11.0739 59.5387 11.1761 59.4196 11.2726 59.2964C13.5858 59.8455 15.5743 60.4499 17.8282 61.3383C18.4485 61.615 18.9629 61.9316 19.2582 62.1466V66.3385L8.2454 64.4858C4.02894 61.2221 2.76963 57.3913 2.55228 54.2519C2.21367 50.0927 3.11375 47.7736 6.01681 45.4285C8.94477 42.9442 12.7414 41.9749 16.2556 40.5905C17.6146 41.1459 19.1033 41.5534 20.4744 41.8903C21.0614 42.0343 21.627 42.1609 22.1428 42.2688C21.8064 42.5493 21.4822 42.861 21.1895 43.2099C20.6025 43.9096 20.1132 44.8055 20.1132 45.866C20.1105 46.5646 20.6775 47.1317 21.3762 47.129C22.0712 47.1266 22.632 46.561 22.6293 45.866C22.6293 44.499 24.2671 43.7792 25.4427 43.0944C26.902 43.7756 28.7033 44.5401 28.7033 46.0969C28.7005 46.7956 29.2676 47.3627 29.9663 47.3599C30.6613 47.3575 31.2221 46.7919 31.2194 46.0969C31.2194 45.0364 30.74 44.1405 30.153 43.4408C29.7079 42.9103 29.1905 42.4668 28.6664 42.0869C28.9347 42.0261 29.2104 41.9595 29.492 41.8904C30.8621 41.5536 32.3549 41.148 33.7158 40.5931L41.3623 43.6006C41.4391 43.6482 42.6254 44.3748 43.9521 45.4286C45.3209 46.5158 46.6313 48.0609 46.7557 48.5959C46.9141 49.2733 47.5946 49.6942 48.2717 49.5345C48.9491 49.3762 49.3676 48.6981 49.2079 48.0209C48.9934 47.0984 48.5067 46.3069 47.8958 45.6031C48.8941 41.5397 51.3875 37.7891 52.3163 36.4889ZM32.539 47.8063C31.8442 47.8035 31.2788 48.3647 31.276 49.0595C31.2733 49.7581 31.8404 50.3251 32.539 50.3225C33.2338 50.3197 33.7948 49.7542 33.7921 49.0595C33.7895 48.3685 33.23 47.809 32.539 47.8063ZM33.802 54.099C33.1072 54.0962 32.5417 54.6573 32.539 55.3522C32.5362 56.0508 33.1033 56.6178 33.802 56.6151C34.4967 56.6123 35.0578 56.0469 35.0551 55.3522C35.0524 54.6612 34.4929 54.1016 33.802 54.099ZM33.802 60.3892C33.1062 60.3864 32.5404 60.949 32.539 61.6448C32.5362 62.3434 33.1033 62.9105 33.802 62.9078C34.4967 62.905 35.0578 62.3396 35.0551 61.6448C35.0537 60.9529 34.4939 60.3919 33.802 60.3892ZM25.2463 62.2197C25.7363 62.2235 26.1137 62.6059 26.1137 63.1215V66.3157C26.1137 66.885 25.6552 67.2875 25.0915 67.2076L21.7769 66.736V62.7038L25.2463 62.2197ZM33.802 66.6769C33.1072 66.6742 32.5417 67.2352 32.539 67.93C32.5362 68.6287 33.1033 69.1957 33.802 69.193C34.4968 69.1902 35.0578 68.6248 35.0551 67.93C35.0524 67.239 34.4929 66.6796 33.802 66.6769Z" fill="#C1121F"/>
</svg>
