<svg width="65" height="65" viewBox="0 0 65 65" fill="none" xmlns="http://www.w3.org/2000/svg">
<path d="M32.5 27.3001C30.2051 27.3001 27.9617 26.6196 26.0536 25.3446C24.1455 24.0697 22.6583 22.2575 21.78 20.1373C20.9018 18.0171 20.672 15.6841 21.1197 13.4333C21.5675 11.1825 22.6726 9.11499 24.2953 7.49225C25.918 5.86952 27.9855 4.76442 30.2363 4.31671C32.4871 3.869 34.8201 4.09878 36.9403 4.977C39.0605 5.85521 40.8727 7.34242 42.1477 9.25056C43.4227 11.1587 44.1032 13.4021 44.1032 15.6969C44.0995 18.7732 42.8759 21.7224 40.7006 23.8976C38.5254 26.0728 35.5762 27.2965 32.5 27.3001ZM32.5 5.13099C30.4102 5.13099 28.3674 5.75067 26.6299 6.91167C24.8923 8.07268 23.538 9.72285 22.7383 11.6535C21.9386 13.5842 21.7294 15.7087 22.137 17.7583C22.5447 19.8079 23.551 21.6905 25.0287 23.1682C26.5064 24.6459 28.3891 25.6522 30.4387 26.0599C32.4883 26.4676 34.6127 26.2583 36.5434 25.4586C38.4741 24.6589 40.1243 23.3046 41.2853 21.5671C42.4463 19.8295 43.0659 17.7867 43.0659 15.6969C43.0623 12.8958 41.9479 10.2104 39.9672 8.22973C37.9865 6.24902 35.3011 5.13465 32.5 5.13099Z" fill="#C1121F"/>
<path d="M34.8718 30.5294C34.3617 30.4807 33.8719 30.3047 33.4473 30.0177C33.1639 29.8191 32.8406 29.6846 32.5 29.6235C32.1594 29.6846 31.8361 29.8191 31.5527 30.0177C31.0694 30.3666 30.4814 30.5398 29.8862 30.5086C29.3036 30.3346 28.7998 29.9629 28.4617 29.4576C28.2826 29.1809 28.0469 28.9452 27.7702 28.7661C27.4345 28.7093 27.0906 28.7235 26.7606 28.8076C26.1829 28.9754 25.565 28.9387 25.0112 28.7038C24.526 28.3414 24.1834 27.8201 24.0431 27.231C23.9578 26.906 23.802 26.6038 23.5867 26.3459C23.2922 26.1759 22.9642 26.0721 22.6255 26.0416C22.0242 26.0063 21.4542 25.7617 21.0144 25.3501C20.6876 24.8466 20.5435 24.2461 20.6064 23.6491C20.6329 23.3093 20.5881 22.9678 20.475 22.6464C20.256 22.3913 19.9848 22.1862 19.6798 22.0448C19.1261 21.7984 18.6743 21.3685 18.4005 20.8278C18.2621 20.2459 18.3331 19.6338 18.6011 19.0991C18.7447 18.7866 18.8202 18.4472 18.8223 18.1033C18.6911 17.7954 18.4981 17.5177 18.2553 17.2874C17.813 16.8661 17.5317 16.3035 17.4601 15.6969C17.5317 15.0903 17.813 14.5278 18.2553 14.1065C18.49 13.8711 18.6715 13.5881 18.7878 13.2767C18.7843 12.933 18.709 12.5938 18.5665 12.281C18.2986 11.7462 18.2276 11.1342 18.366 10.5523C18.6382 10.012 19.0907 9.58395 19.6452 9.34215C19.9494 9.19627 20.2201 8.9891 20.4404 8.73364C20.5542 8.41476 20.599 8.07536 20.5718 7.73789C20.5079 7.13863 20.652 6.53561 20.9798 6.02991C21.4218 5.62176 21.9906 5.37766 22.591 5.33842C22.9284 5.30654 23.2556 5.20531 23.5521 5.04108C23.7659 4.77952 23.9215 4.47543 24.0085 4.14906C24.1515 3.56106 24.4935 3.04066 24.9766 2.67619C25.5304 2.44132 26.1484 2.40469 26.7261 2.57247C27.0551 2.6616 27.3996 2.67812 27.7356 2.62087C28.0117 2.44091 28.2472 2.20541 28.4271 1.92938C28.7669 1.42561 29.27 1.0544 29.8516 0.878316C30.4603 0.841308 31.0626 1.02004 31.5527 1.3831C31.8361 1.58164 32.1594 1.71614 32.5 1.77725C32.8406 1.71614 33.1639 1.58164 33.4473 1.3831C33.9284 1.02921 34.5175 0.85324 35.1138 0.885231C35.6954 1.06131 36.1985 1.43253 36.5383 1.9363C36.7183 2.21232 36.9538 2.44782 37.2298 2.62778C37.566 2.68165 37.9098 2.66517 38.2394 2.57938C38.8171 2.4116 39.435 2.44823 39.9888 2.6831C40.4839 3.03975 40.8386 3.55836 40.9915 4.14906C41.0786 4.47543 41.2341 4.77952 41.4479 5.04108C41.7431 5.20839 42.071 5.30983 42.409 5.33842C43.0097 5.37655 43.5788 5.6208 44.0202 6.02991C44.3481 6.53561 44.4921 7.13863 44.4282 7.73789C44.401 8.07536 44.4458 8.41476 44.5596 8.73364C44.778 8.99107 45.0492 9.19858 45.3548 9.34215C45.9093 9.58395 46.3618 10.012 46.6341 10.5523C46.7723 11.1364 46.7014 11.7506 46.4335 12.2879C46.2906 12.5981 46.2152 12.9352 46.2122 13.2767C46.3285 13.5881 46.5101 13.8711 46.7447 14.1065C47.187 14.5278 47.4683 15.0903 47.5399 15.6969C47.4683 16.3035 47.187 16.8661 46.7447 17.2874C46.5128 17.525 46.3316 17.8073 46.2122 18.1171C46.2144 18.461 46.2899 18.8005 46.4335 19.1129C46.7015 19.6477 46.7725 20.2597 46.6341 20.8416C46.3603 21.3824 45.9085 21.8122 45.3548 22.0586C45.0498 22.2 44.7786 22.4051 44.5596 22.6602C44.4465 22.9817 44.4017 23.3232 44.4282 23.6629C44.491 24.2599 44.347 24.8604 44.0202 25.364C43.5797 25.7745 43.0101 26.019 42.409 26.0554C42.0704 26.086 41.7424 26.1898 41.4479 26.3597C41.2326 26.6177 41.0768 26.9199 40.9915 27.2448C40.8485 27.8328 40.5065 28.3532 40.0234 28.7177C39.4694 28.952 38.8517 28.9886 38.2739 28.8214C37.944 28.7373 37.6001 28.7232 37.2644 28.7799C36.9877 28.9591 36.752 29.1947 36.5729 29.4714C36.2334 29.977 35.7305 30.3505 35.1484 30.5294C35.0564 30.5384 34.9638 30.5384 34.8718 30.5294ZM32.5 28.5863C33.0232 28.6343 33.5254 28.8152 33.959 29.1118C34.2462 29.3198 34.5819 29.4508 34.934 29.4921C35.183 29.4437 35.4665 29.1118 35.75 28.8007C36.0445 28.379 36.4453 28.0426 36.9117 27.8257C37.415 27.6941 37.9436 27.6941 38.4468 27.8257C38.7928 27.9224 39.1588 27.9224 39.5048 27.8257C39.7586 27.568 39.9358 27.2448 40.0165 26.8921C40.1611 26.397 40.4301 25.947 40.7979 25.5852C41.2231 25.2872 41.719 25.106 42.2362 25.0597C42.5955 25.0372 42.942 24.9177 43.2388 24.714C43.3916 24.3861 43.4491 24.0219 43.4048 23.6629C43.3574 23.1377 43.4455 22.6092 43.6606 22.1278C43.9578 21.7058 44.3609 21.3695 44.8293 21.1528C45.1958 20.9315 45.5761 20.7102 45.659 20.4613C45.6859 20.1061 45.6166 19.7502 45.4585 19.431C45.2404 18.9552 45.1476 18.4315 45.1888 17.9097C45.3253 17.4172 45.5846 16.9675 45.9426 16.6028C46.2192 16.2709 46.5027 15.9113 46.5027 15.6693C46.5027 15.4273 46.2192 15.0677 45.9426 14.7427C45.5846 14.3753 45.3253 13.9233 45.1888 13.4288C45.1488 12.9071 45.2416 12.3837 45.4585 11.9076C45.6053 11.5949 45.6673 11.2491 45.6383 10.9049C45.5553 10.6767 45.175 10.4485 44.8085 10.2134C44.3415 9.9945 43.939 9.65865 43.6399 9.23842C43.4241 8.76434 43.3314 8.24349 43.3702 7.72406C43.414 7.36733 43.3564 7.0055 43.2043 6.67991C42.9091 6.47292 42.5616 6.35311 42.2016 6.33417C41.6991 6.28499 41.2167 6.11152 40.7979 5.82938C40.4338 5.45888 40.1698 5.00208 40.0303 4.50172C39.8851 4.10757 39.733 3.69268 39.5186 3.56821C39.1721 3.47484 38.8071 3.47484 38.4606 3.56821C37.9578 3.70323 37.4283 3.70323 36.9255 3.56821C36.4579 3.35689 36.0529 3.02815 35.75 2.61395C35.4665 2.28895 35.183 1.92247 34.934 1.92247C34.5819 1.9593 34.2457 2.08808 33.959 2.29587C33.526 2.59253 33.0231 2.77127 32.5 2.81449C31.9756 2.76716 31.4726 2.58361 31.041 2.28204C30.7543 2.07425 30.4181 1.94547 30.066 1.90864C29.817 1.95012 29.5335 2.28895 29.25 2.60012C28.9543 3.01811 28.5569 3.3537 28.0952 3.57512C27.5896 3.70661 27.0588 3.70661 26.5532 3.57512C26.2091 3.48167 25.8463 3.48167 25.5021 3.57512C25.2809 3.69959 25.1287 4.11449 24.9835 4.50864C24.8416 5.00904 24.5724 5.46409 24.2021 5.82938C23.7753 6.12431 23.2802 6.30522 22.7638 6.35491C22.4038 6.37386 22.0564 6.49367 21.7612 6.70066C21.609 7.02624 21.5515 7.38808 21.5952 7.74481C21.6341 8.262 21.5413 8.78062 21.3255 9.25225C21.0288 9.67633 20.6258 10.0149 20.1569 10.2342C19.7904 10.4485 19.4101 10.6698 19.3271 10.9257C19.2996 11.2809 19.3689 11.637 19.5277 11.956C19.7446 12.4322 19.8374 12.9555 19.7973 13.4773C19.6609 13.9717 19.4016 14.4237 19.0436 14.7911C18.767 15.1161 18.4835 15.4826 18.4835 15.7177C18.4835 15.9528 18.767 16.3193 19.0436 16.6512C19.4016 17.0159 19.6609 17.4656 19.7973 17.9581C19.8386 18.4799 19.7458 19.0036 19.5277 19.4794C19.3844 19.7954 19.3272 20.1437 19.3617 20.489C19.4447 20.7241 19.825 20.9453 20.1915 21.1804C20.6474 21.3951 21.0421 21.7208 21.3394 22.1278C21.5546 22.5996 21.6473 23.1181 21.609 23.6352C21.5655 23.9942 21.623 24.3582 21.775 24.6863C22.0718 24.8901 22.4183 25.0095 22.7777 25.032C23.2926 25.0889 23.7838 25.2796 24.2021 25.5852C24.5645 25.9543 24.8284 26.4084 24.9697 26.906C25.0504 27.2586 25.2275 27.5818 25.4814 27.8395C25.8274 27.9363 26.1933 27.9363 26.5394 27.8395C27.0426 27.708 27.5712 27.708 28.0745 27.8395C28.5409 28.0564 28.9416 28.3928 29.2362 28.8145C29.5197 29.1395 29.8032 29.4714 30.0521 29.506C30.4043 29.4646 30.74 29.3337 31.0271 29.1257C31.4619 28.8191 31.9701 28.633 32.5 28.5863Z" fill="#C1121F"/>
<path d="M35.9574 21.0073C35.876 21.0062 35.7957 20.9873 35.7223 20.952L32.5 19.244L29.2569 20.952C29.1719 20.9954 29.0765 21.0145 28.9814 21.0071C28.8862 20.9998 28.7949 20.9664 28.7175 20.9105C28.6376 20.854 28.5756 20.7757 28.5389 20.685C28.5021 20.5943 28.4921 20.495 28.5101 20.3988L29.1255 16.7962L26.5048 14.2376C26.436 14.1696 26.3873 14.0839 26.3641 13.9899C26.3409 13.896 26.3441 13.7974 26.3734 13.7052C26.4036 13.6128 26.4591 13.5307 26.5337 13.4684C26.6083 13.406 26.6989 13.3659 26.7952 13.3525L30.4255 12.827L32.0505 9.54934C32.0969 9.46737 32.1643 9.39918 32.2457 9.35174C32.3271 9.30429 32.4196 9.2793 32.5138 9.2793C32.608 9.2793 32.7005 9.30429 32.7819 9.35174C32.8633 9.39918 32.9307 9.46737 32.9771 9.54934L34.5745 12.827L38.1909 13.3525C38.2872 13.3659 38.3778 13.406 38.4524 13.4684C38.527 13.5307 38.5826 13.6128 38.6128 13.7052C38.642 13.7974 38.6452 13.896 38.622 13.9899C38.5988 14.0839 38.5502 14.1696 38.4814 14.2376L35.8606 16.7962L36.476 20.3988C36.494 20.495 36.484 20.5943 36.4473 20.685C36.4105 20.7757 36.3485 20.854 36.2686 20.9105C36.1775 20.9745 36.0687 21.0084 35.9574 21.0073ZM32.5 18.1376C32.5846 18.1378 32.6678 18.1592 32.742 18.1999L35.2659 19.5414L34.775 16.6993C34.761 16.6166 34.7675 16.5317 34.7941 16.4522C34.8206 16.3726 34.8663 16.3007 34.9271 16.243L37.0016 14.2307L34.1665 13.8297C34.0832 13.8165 34.0041 13.784 33.9357 13.7348C33.8672 13.6855 33.8113 13.6209 33.7723 13.5462L32.5 10.9462L31.2276 13.5323C31.1887 13.6071 31.1327 13.6717 31.0643 13.7209C30.9958 13.7702 30.9168 13.8027 30.8335 13.8158L27.9846 14.2307L30.059 16.243C30.1199 16.3007 30.1655 16.3726 30.1921 16.4522C30.2186 16.5317 30.2251 16.6166 30.2112 16.6993L29.734 19.5414L32.2856 18.1999C32.3515 18.1634 32.4248 18.1421 32.5 18.1376Z" fill="#C1121F"/>
<path d="M27.3968 44.2552C27.3062 44.2549 27.2172 44.2312 27.1384 44.1864C27.0597 44.1415 26.9938 44.0771 26.9473 43.9993L24.4511 39.7674L19.3617 41.2403C19.2681 41.2683 19.1685 41.2692 19.0743 41.2431C18.9802 41.2169 18.8954 41.1647 18.8296 41.0924C18.7638 41.0202 18.7198 40.9308 18.7026 40.8346C18.6854 40.7384 18.6958 40.6394 18.7324 40.5488L23.8979 26.5876C23.9206 26.5203 23.9572 26.4584 24.0051 26.406C24.0531 26.3536 24.1115 26.3117 24.1766 26.2831C24.2416 26.2545 24.3119 26.2397 24.383 26.2397C24.4541 26.2398 24.5243 26.2546 24.5894 26.2834C24.6552 26.3071 24.7156 26.3439 24.7669 26.3915C24.8181 26.4392 24.8592 26.4967 24.8876 26.5607C24.9161 26.6247 24.9312 26.6937 24.9323 26.7637C24.9333 26.8337 24.9201 26.9032 24.8936 26.9679L20.0532 39.9679L24.5479 38.7233C24.658 38.6895 24.7763 38.6945 24.8832 38.7372C24.9901 38.78 25.0792 38.858 25.1356 38.9584L27.2723 42.5749L32.009 28.9663C32.054 28.8361 32.1488 28.7291 32.2726 28.6688C32.3965 28.6085 32.5392 28.5999 32.6694 28.6448C32.7996 28.6897 32.9066 28.7845 32.9669 28.9084C33.0272 29.0322 33.0359 29.175 32.991 29.3052L27.8808 43.9371C27.8486 44.0301 27.7904 44.1121 27.7133 44.1733C27.6361 44.2345 27.5432 44.2725 27.4452 44.2828L27.3968 44.2552Z" fill="#C1121F"/>
<path d="M37.6032 44.2552H37.5548C37.4568 44.2449 37.3638 44.2069 37.2867 44.1456C37.2095 44.0844 37.1514 44.0025 37.1191 43.9094L32.009 29.2706C31.9641 29.1404 31.9727 28.9977 32.033 28.8738C32.0933 28.75 32.2004 28.6552 32.3306 28.6102C32.4608 28.5653 32.6035 28.5739 32.7274 28.6342C32.8512 28.6945 32.946 28.8016 32.9909 28.9318L37.7276 42.5403L39.8643 38.9238C39.926 38.8296 40.0173 38.7588 40.1237 38.7224C40.2302 38.6861 40.3458 38.6864 40.4521 38.7233L44.9468 39.961L40.1064 26.9679C40.0828 26.9039 40.072 26.8359 40.0747 26.7677C40.0774 26.6995 40.0935 26.6325 40.122 26.5706C40.1506 26.5086 40.1911 26.4529 40.2412 26.4066C40.2913 26.3603 40.3501 26.3243 40.4141 26.3007C40.4781 26.277 40.5461 26.2663 40.6143 26.269C40.6825 26.2716 40.7495 26.2877 40.8115 26.3163C40.8734 26.3449 40.9291 26.3854 40.9755 26.4355C41.0218 26.4856 41.0578 26.5443 41.0814 26.6084L46.2468 40.5695C46.2835 40.6601 46.2938 40.7592 46.2766 40.8554C46.2594 40.9515 46.2154 41.0409 46.1496 41.1132C46.0839 41.1854 45.999 41.2377 45.9049 41.2638C45.8108 41.29 45.7112 41.289 45.6175 41.261L40.5282 39.8158L38.0319 44.027C37.9841 44.0967 37.9201 44.1538 37.8455 44.1936C37.7708 44.2333 37.6877 44.2544 37.6032 44.2552Z" fill="#C1121F"/>
<path d="M37.5271 62.7525H37.1883C35.8401 62.6092 34.5142 62.3027 33.2399 61.8397C32.6037 61.6323 31.9399 61.4179 31.2968 61.2588C28.6 60.5674 25.9585 60.0003 23.4553 59.5094L22.6947 59.3573C19.4724 58.7211 16.1394 58.0642 13.0138 58.4445C12.9403 58.4544 12.8656 58.4477 12.795 58.4249C12.7244 58.4022 12.6598 58.364 12.6059 58.3131C12.551 58.2617 12.5073 58.1996 12.4776 58.1306C12.4479 58.0616 12.4327 57.9872 12.433 57.912L12.7787 47.3115C12.783 47.1866 12.8323 47.0675 12.9174 46.976C13.0025 46.8846 13.1178 46.8269 13.242 46.8136C15.5293 46.5357 17.7988 46.1271 20.0394 45.5897C21.9963 45.0987 27.141 44.4003 32.5484 48.4594C33.2764 49.0147 34.137 49.3699 35.0447 49.4897L38.7027 49.9461C39.4457 50.0385 40.1991 50.0011 40.9293 49.8354C43.0521 49.3445 46.7101 48.8535 48.2867 50.7759C49.9192 49.9482 51.6283 49.2812 53.3899 48.7844C55.6751 48.0642 58.0945 47.875 60.4638 48.2312C61.0208 48.305 61.5508 48.5154 62.0068 48.8435C62.4628 49.1717 62.8307 49.6074 63.0777 50.112C63.1919 50.4352 63.2136 50.7837 63.1402 51.1185C63.0669 51.4533 62.9016 51.7609 62.6628 52.0067C62.2358 52.4334 61.7076 52.7451 61.1277 52.9126C54.9942 55.1807 48.9989 57.4971 43.0798 60.9131C40.9293 62.1301 39.0692 62.7525 37.5271 62.7525ZM14.9224 57.2897C17.6074 57.3797 20.2775 57.7294 22.8952 58.3338L23.6559 58.486C26.1798 58.9769 28.8351 59.5716 31.5458 60.2424C32.2372 60.4152 32.9287 60.6296 33.558 60.844C34.7505 61.2843 35.9932 61.5747 37.2575 61.7083C38.6404 61.8051 40.4314 61.2243 42.5335 60.0073C48.5218 56.5498 54.5654 54.2195 60.7404 51.9376C61.1572 51.8252 61.5397 51.6114 61.8537 51.3152C61.9689 51.2131 62.0514 51.0792 62.0908 50.9303C62.1302 50.7815 62.1247 50.6243 62.075 50.4785C61.8887 50.152 61.6296 49.8729 61.3177 49.663C61.0059 49.4531 60.6498 49.3181 60.2771 49.2684C58.0554 48.9378 55.7876 49.1175 53.6458 49.794C51.9604 50.2703 50.3254 50.9095 48.7638 51.7025C48.8448 51.9563 48.8731 52.224 48.8469 52.4892C48.8207 52.7543 48.7407 53.0114 48.6117 53.2445C47.4224 55.4365 42.0702 56.4115 40.2585 56.5221C38.0458 56.6466 32.8734 56.5221 30.8819 55.7684C30.8146 55.7455 30.7527 55.709 30.7001 55.6611C30.6475 55.6133 30.6053 55.5551 30.5761 55.4903C30.5469 55.4254 30.5314 55.3553 30.5305 55.2842C30.5295 55.2131 30.5433 55.1425 30.5708 55.0769C30.5945 55.0102 30.6315 54.949 30.6795 54.8969C30.7275 54.8449 30.7856 54.803 30.8502 54.774C30.9148 54.7449 30.9846 54.7292 31.0554 54.7278C31.1262 54.7264 31.1966 54.7393 31.2622 54.7658C32.9633 55.395 37.7761 55.6025 40.2516 55.4573C42.3261 55.3328 46.9245 54.2541 47.7543 52.6913C47.8402 52.5322 47.8805 52.3524 47.8707 52.1718C47.861 51.9912 47.8015 51.8168 47.6989 51.6679C46.5649 49.787 42.7341 50.4785 41.1367 50.8381C40.2888 51.0324 39.4132 51.0746 38.5505 50.9626L34.8856 50.4785C33.7996 50.3404 32.7692 49.9182 31.8984 49.2546C26.8436 45.4652 22.0793 46.1083 20.2606 46.5578C18.1227 47.0776 15.9572 47.477 13.7745 47.7541L13.4633 57.3174C13.9473 57.3104 14.4314 57.2897 14.9224 57.2897Z" fill="#C1121F"/>
<path d="M13.2697 47.8373C13.1333 47.8336 13.0039 47.7765 12.9094 47.6781C12.815 47.5797 12.763 47.4481 12.7649 47.3117V46.2399H10.3723C10.2348 46.2399 10.1029 46.1853 10.0056 46.088C9.90837 45.9908 9.85373 45.8589 9.85373 45.7213C9.85373 45.5838 9.90837 45.4518 10.0056 45.3546C10.1029 45.2573 10.2348 45.2027 10.3723 45.2027H13.2904C13.36 45.2017 13.429 45.2149 13.4933 45.2415C13.5576 45.2681 13.6158 45.3075 13.6643 45.3573C13.7129 45.4071 13.7507 45.4663 13.7756 45.5313C13.8005 45.5963 13.8119 45.6656 13.809 45.7351V47.3325C13.8082 47.4015 13.7934 47.4696 13.7656 47.5328C13.7378 47.5959 13.6974 47.6528 13.647 47.6999C13.5967 47.7471 13.5372 47.7836 13.4724 47.8072C13.4075 47.8308 13.3386 47.841 13.2697 47.8373Z" fill="#C1121F"/>
<path d="M12.8202 60.9757H10.8218C10.6843 60.9757 10.5524 60.9211 10.4551 60.8238C10.3578 60.7266 10.3032 60.5947 10.3032 60.4571C10.3032 60.3196 10.3578 60.1877 10.4551 60.0904C10.5524 59.9931 10.6843 59.9385 10.8218 59.9385H12.3223L12.4053 57.9055C12.4108 57.768 12.4707 57.6382 12.5719 57.5449C12.673 57.4515 12.8071 57.4021 12.9447 57.4076C13.0822 57.4131 13.212 57.4731 13.3053 57.5742C13.3987 57.6754 13.4481 57.8095 13.4426 57.947L13.3388 60.4779C13.3352 60.6124 13.2788 60.74 13.1817 60.8332C13.0846 60.9264 12.9548 60.9776 12.8202 60.9757Z" fill="#C1121F"/>
<path d="M2.35796 64.1354C2.22691 64.1356 2.10078 64.0855 2.00558 63.9954C1.91037 63.9054 1.85335 63.7822 1.84626 63.6514C1.83673 63.5149 1.88153 63.3801 1.9709 63.2765C2.06027 63.1729 2.18697 63.1088 2.32339 63.0982L10.3723 62.5381L9.84679 44.9466L3.05637 44.4764C2.91882 44.4672 2.79055 44.4038 2.69978 44.3C2.609 44.1963 2.56316 44.0607 2.57233 43.9232C2.5815 43.7856 2.64493 43.6574 2.74867 43.5666C2.85242 43.4758 2.98797 43.43 3.12552 43.4391L10.3862 43.9439C10.5153 43.9525 10.6365 44.0091 10.7261 44.1025C10.8156 44.1959 10.867 44.3194 10.8702 44.4487L11.4165 62.9945C11.4222 63.1279 11.3755 63.2583 11.2863 63.3578C11.1972 63.4573 11.0726 63.518 10.9393 63.5269L2.39254 64.1216L2.35796 64.1354Z" fill="#C1121F"/>
</svg>
