<svg width="86" height="86" viewBox="0 0 86 86" fill="none" xmlns="http://www.w3.org/2000/svg">
<path d="M46.2199 3.66748C46.1014 3.67035 45.984 3.69017 45.8711 3.72607C43.362 4.51524 41.6649 6.08098 40.5264 7.72175L40.4679 6.34353C40.4399 5.65346 39.8577 5.11694 39.1677 5.14582C38.4805 5.17983 37.9483 5.75869 37.9773 6.44595L38.031 7.70953C37.0018 6.40408 35.6229 5.15185 33.7938 4.33347C33.4898 4.19665 33.1438 4.18724 32.8327 4.30705C32.5254 4.42535 32.2773 4.66 32.1423 4.9607C31.8594 5.58991 32.1398 6.3293 32.7693 6.61216C34.4551 7.36648 35.6887 8.69497 36.5576 10.0053C38.4867 9.66174 40.3339 9.66135 42.1852 9.76642C43.061 8.28617 44.4466 6.78857 46.62 6.105C47.2804 5.89902 47.6479 5.19607 47.4396 4.53647C47.2711 4.00922 46.7733 3.65523 46.2199 3.66748ZM39.4726 12.2174C36.7192 12.3357 34.9881 12.8824 33.867 13.72C32.7459 14.5576 32.3142 15.7416 32.54 16.7155C33.9306 22.7182 35.3233 28.7203 36.7137 34.723L37.5724 34.7744C37.8879 31.6887 39.691 28.8819 42.495 27.3465C43.3829 26.8604 44.3249 26.5266 45.2857 26.3415L45.4564 25.1633L41.1972 25.2729C40.5064 25.2918 39.9314 24.7465 39.9141 24.0557C39.8952 23.3649 40.4405 22.7898 41.1314 22.7725L45.8198 22.6626L46.1467 20.4208L39.8141 20.6064C39.127 20.6253 38.5536 20.0859 38.531 19.3989C38.508 18.7052 39.0545 18.1257 39.7483 18.1084L46.5126 17.9082L46.7737 16.1079C46.918 15.1154 46.3771 13.9775 45.1881 13.2391C44.1477 12.5931 42.6609 12.2032 40.4606 12.1952L39.4726 12.2174ZM56.2433 12.3444C55.7192 12.3917 55.2802 12.7603 55.1456 13.2689L54.2503 16.6182L70.3355 20.9261L71.2332 17.5744C71.4129 16.9067 71.016 16.2199 70.3477 16.0424L56.675 12.3834C56.5345 12.3456 56.3884 12.3308 56.2433 12.3444ZM22.0926 39.6457L24.149 42.0045C24.2123 42.0767 24.271 42.0767 24.3344 42.0045L25.6882 40.4555C26.5486 39.4724 28.1381 39.4724 28.9984 40.4555L30.345 42.0045C30.4083 42.0767 30.467 42.0767 30.5304 42.0045L31.8842 40.4555C32.7446 39.4724 34.3244 39.4724 35.1847 40.4555L36.541 42.0045C36.6043 42.0767 36.6606 42.0767 36.7239 42.0045L37.263 41.3897L36.1385 37.1892L29.5717 36.7965C28.5883 36.7375 27.7872 36.0429 27.5056 35.2279C27.2239 34.413 27.4221 33.3739 28.1593 32.7203L32.5892 28.7977L27.3397 28.4807C26.3564 28.4217 25.5552 27.727 25.2735 26.9121C24.9919 26.0972 25.1927 25.0581 25.9297 24.4045L31.3061 19.6404C30.5515 17.9939 29.253 16.4507 27.6617 15.2594C26.098 14.0887 24.1952 13.2492 22.2219 13.2639C21.6694 13.2677 21.1105 13.3392 20.5529 13.4882C18.0042 14.171 16.2631 16.2808 15.279 18.5791C14.2949 20.8775 13.9844 23.43 14.5521 25.5484L18.3624 39.748L20.9042 39.2406C21.3996 39.1102 21.8565 39.4092 22.0926 39.6457ZM23.9729 18.5795C24.3006 18.5795 24.6151 18.7083 24.8487 18.9381C25.3395 19.4263 25.3395 20.2208 24.8487 20.709L23.6704 21.8898C23.1833 22.3741 22.3964 22.3741 21.9092 21.8898C21.4183 21.4015 21.4183 20.6071 21.9092 20.1188L23.0899 18.9381C23.3252 18.7068 23.6427 18.5776 23.9729 18.5795ZM53.3819 18.9745L51.4621 23.1947L69.4549 28.0221L69.9037 23.3995L53.3819 18.9745ZM57.6337 21.2285C57.7433 21.228 57.8523 21.2437 57.9582 21.2709L59.0925 21.5758C59.7586 21.7542 60.1539 22.4392 59.9755 23.1054C59.798 23.7725 59.113 24.1691 58.446 23.9907L57.3117 23.6858C56.6446 23.5081 56.248 22.8232 56.4262 22.1563C56.5722 21.6094 57.0677 21.2282 57.6337 21.2285ZM32.1375 22.248L27.893 26.0096L33.2279 26.3293L32.1375 22.248ZM47.9446 23.0971C47.6135 23.0945 47.295 23.2237 47.0591 23.4558C46.2139 24.301 45.9971 25.3506 45.8979 26.1488C45.8904 26.2074 45.8843 26.2629 45.8787 26.3196C46.7963 26.2032 47.631 26.2403 48.3936 26.3461C48.4707 25.8655 48.6554 25.3989 48.8303 25.224C49.3212 24.7357 49.3212 23.9413 48.8303 23.453C48.5943 23.221 48.2756 23.0948 47.9446 23.0971ZM55.0063 41.8802L55.1186 42.0072C55.1942 42.0639 55.253 42.0544 55.3015 42.0046L56.6578 40.4581C56.9699 40.1017 57.3765 39.8754 57.8251 39.7738C58.5927 39.6113 59.4177 39.8404 59.9583 40.458L61.3122 42.0071C61.3755 42.0792 61.4342 42.0792 61.4975 42.0071L62.8441 40.458C63.1713 40.0648 63.562 39.9331 64.0848 39.7931C64.8859 39.6944 65.687 40.0036 66.1354 40.687L66.1866 40.7648C67.5589 35.9038 68.6142 31.9198 68.9943 30.478L50.5644 25.5437C50.4277 25.9667 50.4053 26.0395 50.1985 26.6804C51.34 27.0698 52.4194 27.6788 53.3672 28.4977C56.3896 31.109 57.4766 35.3375 56.0821 39.0871L55.0063 41.8802ZM53.6064 38.1431C54.6047 35.4298 53.8217 32.3916 51.6329 30.5005C50.5361 29.5529 49.2089 28.9949 47.8349 28.8491C47.5772 28.8226 47.3163 28.8068 47.0567 28.8113C45.9317 28.8151 44.8013 29.097 43.7684 29.6626C41.2373 31.0485 39.8492 33.8495 40.2459 36.705C40.5444 39.2073 41.2306 40.2859 42.7365 42.0058C42.7998 42.078 42.8562 42.078 42.9195 42.0058L44.266 40.4567C45.1263 39.4737 46.7159 39.4737 47.5762 40.4567L48.9228 42.0058C48.9861 42.078 49.0424 42.078 49.1057 42.0058L51.1719 39.6469C51.4093 39.3771 51.7515 39.2221 52.111 39.2226C52.462 39.2227 52.7966 39.3707 53.0344 39.6314L53.6064 38.1431ZM23.9729 29.1905C24.302 29.1931 24.6167 29.3255 24.8487 29.5587C25.333 30.0458 25.333 30.8328 24.8487 31.3199L23.6704 32.5004C23.1833 32.9849 22.3964 32.9849 21.9092 32.5004C21.4248 32.0133 21.4248 31.2264 21.9092 30.7393L23.0899 29.5587C23.3237 29.3236 23.6413 29.1909 23.9729 29.1905ZM34.3646 30.5616L30.1226 34.3254L35.4575 34.6474L34.3646 30.5616ZM19.9846 41.9704C17.9949 42.3489 16.0123 42.7358 14.0569 43.2608L15.179 80.4416C15.2066 81.7483 16.9687 82.1403 17.5476 80.9686L19.1332 77.7973L22.2849 80.9489L19.9846 41.9704ZM27.3392 42.3655L26.2147 43.6462C25.2868 44.7066 23.6708 44.8095 22.6069 43.958L24.834 81.6583H47.0957C48.4885 81.6583 50.6652 81.2841 52.9428 80.6728C54.1665 80.985 55.2575 81.6583 57.6435 81.6583H63.6175C64.2769 81.6583 64.8227 81.1456 64.864 80.4875L66.1349 61.1994V61.1944V61.1894V61.1844V61.1794V61.1744V61.1694V61.1644V61.1595V61.1544C66.208 58.713 66.5102 55.5781 65.6007 52.7703C66.5807 49.8548 66.8448 47.6452 66.8448 47.6452C66.8485 47.6225 66.8523 47.5964 66.8546 47.5722L67.0595 43.8107H65.8765C65.4571 43.8104 65.0659 43.5998 64.8349 43.2496L64.3568 42.5203L63.3786 43.6448C62.3491 44.8214 60.4612 44.8214 59.4317 43.6448L58.3071 42.3642L57.1826 43.6448C56.1531 44.8214 54.2677 44.8214 53.2381 43.6448L52.1136 42.3642L50.9866 43.6448C49.9571 44.8214 48.0717 44.8214 47.0422 43.6448L45.9176 42.3642L44.8004 43.6448C43.7709 44.8214 41.8854 44.8214 40.8559 43.6448L39.7314 42.3642L38.6044 43.6448C37.5749 44.8214 35.6894 44.8214 34.6599 43.6448L33.5354 42.3642L32.4108 43.6448C31.3813 44.8214 29.4935 44.8214 28.464 43.6448L27.3392 42.3655Z" fill="#C1121F"/>
</svg>
