<svg width="64" height="65" viewBox="0 0 64 65" fill="none" xmlns="http://www.w3.org/2000/svg">
<path d="M34.6649 2.79346C34.576 2.79565 34.488 2.81074 34.4033 2.83809C32.5215 3.43921 31.2486 4.63187 30.3948 5.88167L30.3509 4.83185C30.3299 4.30622 29.8932 3.89754 29.3757 3.91954C28.8604 3.94545 28.4612 4.38637 28.4829 4.90987L28.5232 5.87236C27.7513 4.87797 26.7172 3.92413 25.3453 3.30075C25.1174 3.19653 24.8578 3.18937 24.6245 3.28063C24.394 3.37074 24.2079 3.54947 24.1067 3.77852C23.8945 4.25781 24.1049 4.82102 24.5769 5.03648C25.8413 5.61105 26.7665 6.62299 27.4182 7.62109C28.865 7.35939 30.2504 7.3591 31.6389 7.43913C32.2958 6.3116 33.335 5.17085 34.965 4.65016C35.4603 4.49326 35.7359 3.95781 35.5797 3.45538C35.4533 3.05377 35.08 2.78413 34.6649 2.79346ZM29.6045 9.30612C27.5394 9.39623 26.241 9.81262 25.4002 10.4506C24.5594 11.0887 24.2356 11.9905 24.405 12.7324C25.4479 17.3047 26.4925 21.8767 27.5353 26.449L28.1793 26.4882C28.4159 24.1377 29.7682 21.9998 31.8713 20.8302C32.5371 20.46 33.2437 20.2057 33.9642 20.0647L34.0923 19.1672L30.8979 19.2507C30.3798 19.2651 29.9486 18.8498 29.9356 18.3235C29.9214 17.7973 30.3304 17.3593 30.8485 17.3461L34.3649 17.2624L34.61 15.5548L29.8606 15.6961C29.3453 15.7105 28.9152 15.2997 28.8983 14.7763C28.881 14.248 29.2909 13.8065 29.8112 13.7934L34.8845 13.6409L35.0802 12.2696C35.1885 11.5135 34.7828 10.6468 33.891 10.0844C33.1107 9.59227 31.9957 9.29527 30.3454 9.28916L29.6045 9.30612ZM42.1825 9.40285C41.7894 9.43884 41.4602 9.71962 41.3592 10.107L40.6877 12.6583L52.7516 15.9397L53.4249 13.3866C53.5597 12.878 53.262 12.3549 52.7608 12.2197L42.5063 9.43255C42.4009 9.40376 42.2913 9.39249 42.1825 9.40285ZM16.5694 30.1987L18.1117 31.9955C18.1592 32.0505 18.2033 32.0505 18.2508 31.9955L19.2662 30.8156C19.9114 30.0667 21.1036 30.0667 21.7488 30.8156L22.7587 31.9955C22.8062 32.0505 22.8502 32.0505 22.8978 31.9955L23.9132 30.8156C24.5584 30.0667 25.7433 30.0667 26.3885 30.8156L27.4057 31.9955C27.4532 32.0505 27.4955 32.0505 27.5429 31.9955L27.9473 31.5272L27.1038 28.3276L22.1788 28.0284C21.4412 27.9835 20.8404 27.4544 20.6292 26.8337C20.4179 26.2129 20.5666 25.4214 21.1195 24.9235L24.4419 21.9356L20.5048 21.6941C19.7673 21.6492 19.1664 21.12 18.9551 20.4993C18.7439 19.8786 18.8945 19.0871 19.4473 18.5892L23.4796 14.9603C22.9136 13.7061 21.9398 12.5307 20.7463 11.6232C19.5735 10.7315 18.1464 10.0921 16.6664 10.1033C16.252 10.1061 15.8328 10.1606 15.4147 10.2741C13.5031 10.7942 12.1973 12.4012 11.4593 14.1519C10.7212 15.9027 10.4883 17.8469 10.9141 19.4606L13.7718 30.2766L15.6781 29.8901C16.0497 29.7908 16.3924 30.0186 16.5694 30.1987ZM17.9797 14.1522C18.2254 14.1522 18.4613 14.2503 18.6365 14.4254C19.0046 14.7973 19.0046 15.4024 18.6365 15.7743L17.7528 16.6737C17.3874 17.0427 16.7973 17.0427 16.4319 16.6737C16.0637 16.3018 16.0637 15.6967 16.4319 15.3248L17.3174 14.4254C17.4939 14.2492 17.7321 14.1508 17.9797 14.1522ZM40.0364 14.4531L38.5966 17.6677L52.0912 21.3448L52.4278 17.8237L40.0364 14.4531ZM43.2253 16.17C43.3074 16.1697 43.3892 16.1816 43.4686 16.2023L44.3193 16.4346C44.819 16.5705 45.1155 17.0922 44.9816 17.5997C44.8485 18.1078 44.3347 18.4099 43.8345 18.2741L42.9838 18.0418C42.4834 17.9065 42.186 17.3848 42.3197 16.8768C42.4291 16.4601 42.8008 16.1698 43.2253 16.17ZM24.1031 16.9466L20.9197 19.8118L24.9209 20.0554L24.1031 16.9466ZM35.9584 17.5933C35.7101 17.5914 35.4713 17.6898 35.2943 17.8666C34.6604 18.5104 34.4978 19.3099 34.4234 19.9179C34.4178 19.9625 34.4132 20.0048 34.409 20.048C35.0972 19.9593 35.7232 19.9876 36.2952 20.0682C36.353 19.7021 36.4915 19.3467 36.6227 19.2134C36.9909 18.8415 36.9909 18.2364 36.6227 17.8645C36.4457 17.6877 36.2067 17.5916 35.9584 17.5933ZM41.2547 31.9008L41.3389 31.9975C41.3957 32.0407 41.4398 32.0335 41.4762 31.9956L42.4934 30.8176C42.7274 30.5461 43.0324 30.3737 43.3688 30.2963C43.9445 30.1725 44.5633 30.347 44.9687 30.8175L45.9841 31.9974C46.0316 32.0524 46.0756 32.0524 46.1231 31.9974L47.133 30.8175C47.3785 30.518 47.6715 30.4177 48.0636 30.311C48.6645 30.2358 49.2652 30.4713 49.6015 30.9919L49.6399 31.0512C50.6692 27.3484 51.4606 24.3138 51.7457 23.2156L37.9233 19.457C37.8208 19.7792 37.804 19.8347 37.6489 20.3228C38.505 20.6195 39.3145 21.0833 40.0254 21.7071C42.2922 23.6962 43.1074 26.9171 42.0616 29.7732L41.2547 31.9008ZM40.2048 29.0542C40.9535 26.9874 40.3662 24.6731 38.7247 23.2327C37.9021 22.5109 36.9067 22.0858 35.8761 21.9747C35.6829 21.9546 35.4872 21.9426 35.2925 21.946C34.4488 21.9489 33.601 22.1636 32.8263 22.5944C30.928 23.6501 29.8869 25.7837 30.1844 27.9588C30.4083 29.8648 30.923 30.6864 32.0524 31.9965C32.0999 32.0514 32.1421 32.0514 32.1896 31.9965L33.1995 30.8165C33.8447 30.0677 35.0369 30.0677 35.6822 30.8165L36.6921 31.9965C36.7396 32.0514 36.7818 32.0514 36.8293 31.9965L38.3789 30.1997C38.5569 29.9941 38.8136 29.8761 39.0833 29.8764C39.3465 29.8766 39.5974 29.9893 39.7758 30.1878L40.2048 29.0542ZM17.9797 22.2348C18.2265 22.2368 18.4625 22.3376 18.6365 22.5152C18.9998 22.8863 18.9998 23.4858 18.6365 23.8568L17.7528 24.7561C17.3874 25.1251 16.7973 25.1251 16.4319 24.7561C16.0686 24.385 16.0686 23.7856 16.4319 23.4146L17.3174 22.5152C17.4927 22.3362 17.731 22.2351 17.9797 22.2348ZM25.7735 23.2792L22.5919 26.1462L26.5931 26.3915L25.7735 23.2792ZM14.9884 31.9695C13.4962 32.2578 12.0092 32.5525 10.5427 32.9524L11.3842 61.2737C11.405 62.269 12.7265 62.5677 13.1607 61.6751L14.3499 59.2596L16.7136 61.6602L14.9884 31.9695ZM20.5044 32.2705L19.661 33.246C18.9651 34.0537 17.7531 34.1321 16.9552 33.4835L18.6255 62.2005H35.3217C36.3663 62.2005 37.9989 61.9155 39.7071 61.4499C40.6249 61.6877 41.4431 62.2005 43.2326 62.2005H47.7131C48.2077 62.2005 48.617 61.81 48.648 61.3087L49.6012 46.6166V46.6128V46.6089V46.6052V46.6014V46.5975V46.5937V46.59V46.5862V46.5823C49.656 44.7226 49.8826 42.3347 49.2005 40.196C49.9355 37.9752 50.1336 36.2921 50.1336 36.2921C50.1364 36.2748 50.1392 36.2549 50.1409 36.2365L50.2946 33.3713H49.4074C49.0928 33.3711 48.7994 33.2106 48.6262 32.9439L48.2676 32.3884L47.5339 33.2449C46.7618 34.1412 45.3459 34.1412 44.5738 33.2449L43.7304 32.2694L42.8869 33.2449C42.1148 34.1412 40.7007 34.1412 39.9286 33.2449L39.0852 32.2694L38.24 33.2449C37.4678 34.1412 36.0537 34.1412 35.2816 33.2449L34.4382 32.2694L33.6003 33.2449C32.8282 34.1412 31.4141 34.1412 30.6419 33.2449L29.7985 32.2694L28.9533 33.2449C28.1812 34.1412 26.7671 34.1412 25.9949 33.2449L25.1515 32.2694L24.3081 33.2449C23.536 34.1412 22.1201 34.1412 21.348 33.2449L20.5044 32.2705Z" fill="#C1121F"/>
</svg>
