<svg width="64" height="64" viewBox="0 0 64 64" fill="none" xmlns="http://www.w3.org/2000/svg">
<path d="M58 54C56.825 58.702 52.6 62 47.754 62H16.246C11.4 62 7.175 58.702 6 54H58Z" fill="#E6E9ED"/>
<path d="M6.729 56H57.271C57.574 55.367 57.825 54.702 58 54H6C6.175 54.702 6.426 55.367 6.729 56Z" fill="#CCD1D9"/>
<path d="M60 50H4C2.895 50 2 50.895 2 52C2 53.105 2.895 54 4 54H60C61.105 54 62 53.105 62 52C62 50.895 61.105 50 60 50Z" fill="#E6E9ED"/>
<path d="M60 50.0001C60 50.0001 58.743 47.2071 56.178 43.7091L48 37.0001L40 31.0001L27.712 30.3501C25.483 30.7201 23.415 31.3651 21.508 32.2031L9.103 42.0481C5.674 46.2791 4 50.0001 4 50.0001H60Z" fill="#ECC19C"/>
<path d="M56.178 43.7091L48 37.0001L43.691 33.7681C42.631 35.2451 42 37.0481 42 39.0001C42 43.9631 46.037 48.0001 51 48.0001C53.472 48.0001 55.714 46.9971 57.342 45.3781C56.989 44.8471 56.603 44.2891 56.178 43.7091Z" fill="#CF9E76"/>
<path d="M27.712 30.3501C26.574 30.5391 25.48 30.8011 24.427 31.1221C26.672 32.3391 29.272 33.0001 31.974 33.0001H35.064L38.648 37.3001C39.548 38.3801 40.871 39.0001 42.276 39.0001C44.272 39.0001 45.974 37.7521 46.664 35.9981L40 31.0001L27.712 30.3501Z" fill="#CF9E76"/>
<path d="M45 28.276V27.829C45 26.266 43.734 25 42.172 25C41.422 25 40.702 25.298 40.172 25.828L36.167 29.833C33.976 28.357 30.439 25.681 29.11 22.999C27.128 18.999 26.956 14.999 22.001 14.999C19.878 14.999 19.019 16.203 19.001 19.037C18.983 22.014 20.268 24.831 22.29 26.99C24.771 29.642 28.341 31 31.973 31H36L40.183 36.02C40.701 36.641 41.467 37 42.276 37C43.78 37 45 35.78 45 34.276V33.724C45 32.22 43.78 31 42.276 31C43.78 31 45 29.78 45 28.276Z" fill="#FC6E51"/>
<path d="M29.109 23.0002C28.619 22.0122 28.24 21.0242 27.872 20.0962L27.2 20.6002C25.123 22.1582 22.596 23.0002 20 23.0002H19.761C20.334 24.4682 21.199 25.8272 22.289 26.9912C23.029 27.7812 23.873 28.4412 24.779 29.0002H25L25.502 28.8742C27.676 28.3302 29.748 27.4392 31.637 26.2362L31.641 26.2332C30.588 25.2112 29.657 24.1072 29.109 23.0002Z" fill="#E9573F"/>
<path d="M51 46C54.866 46 58 42.866 58 39C58 35.134 54.866 32 51 32C47.134 32 44 35.134 44 39C44 42.866 47.134 46 51 46Z" fill="#FCD770"/>
<path d="M9.10299 42.0472C8.63999 42.6182 8.21199 43.1792 7.81299 43.7242C9.62299 46.3052 12.615 48.0002 16 48.0002C21.514 48.0002 26 43.5142 26 38.0002C26 35.4832 25.058 33.1872 23.518 31.4272C22.832 31.6642 22.158 31.9172 21.509 32.2022L9.10299 42.0472Z" fill="#CF9E76"/>
<path d="M16 46C20.4183 46 24 42.4183 24 38C24 33.5817 20.4183 30 16 30C11.5817 30 8 33.5817 8 38C8 42.4183 11.5817 46 16 46Z" fill="#FCD770"/>
<path d="M16 42C18.2091 42 20 40.2091 20 38C20 35.7909 18.2091 34 16 34C13.7909 34 12 35.7909 12 38C12 40.2091 13.7909 42 16 42Z" fill="#B4DD7F"/>
<path d="M51 42C49.35 42 48 40.65 48 39C48 37.35 49.35 36 51 36C52.65 36 54 37.35 54 39C54 40.65 52.65 42 51 42Z" fill="#FFEAA7"/>
<path d="M4 50H60C60 50 59.652 49.231 58.956 48H5.044C4.348 49.23 4 50 4 50Z" fill="#DFB28B"/>
<path d="M60.668 49.081C60.221 48.181 59.155 46.173 57.431 43.738C58.412 42.41 59 40.774 59 39C59 34.589 55.411 31 51 31C49.058 31 47.276 31.697 45.888 32.853C45.714 32.133 45.338 31.49 44.812 31C45.543 30.32 46 29.35 46 28.276V27.829C46 25.717 44.282 24 42.172 24C41.149 24 40.188 24.398 39.465 25.122L36.048 28.539C33.952 27.068 31.109 24.785 30.005 22.557C29.584 21.709 29.245 20.85 28.917 20.02C27.747 17.06 26.538 14 22 14C18.031 14 18.008 17.787 18 19.032C17.981 22.136 19.246 25.205 21.56 27.675C22.434 28.609 23.458 29.395 24.576 30.042C23.605 30.32 22.648 30.658 21.705 31.045C20.151 29.768 18.164 29 16 29C11.037 29 7 33.038 7 38C7 39.412 7.336 40.743 7.918 41.934C5.394 45.145 3.886 47.965 3.332 49.081C1.999 49.386 1 50.576 1 52C1 53.654 2.346 55 4 55H5.254C6.788 59.746 11.197 63 16.246 63H47.754C52.803 63 57.212 59.746 58.746 55H60C61.654 55 63 53.654 63 52C63 50.576 62.001 49.386 60.668 49.081ZM51 33C54.309 33 57 35.691 57 39C57 42.309 54.309 45 51 45C47.691 45 45 42.309 45 39C45 35.691 47.691 33 51 33ZM41.724 32H42.277C43.227 32 44 32.773 44 33.724V34.276C44 35.227 43.227 36 42.275 36C41.762 36 41.28 35.774 40.952 35.38L38.135 32H41.724ZM40.879 26.535C41.22 26.195 41.69 26 42.172 26C43.18 26 44 26.82 44 27.829V28.276C44 29.227 43.227 30 42.276 30H38.275C38.146 29.922 37.97 29.813 37.743 29.67L40.879 26.535ZM27.658 29.264C28.995 28.796 30.277 28.192 31.501 27.472C32.55 28.43 33.662 29.299 34.644 30.001H31.973C30.468 30 29.012 29.736 27.658 29.264ZM22 16C24.707 16 25.597 17.23 26.654 19.76L26.601 19.8C24.829 21.128 22.66 21.889 20.451 21.981C20.15 21.021 19.995 20.033 20.001 19.044C20.018 16.224 20.878 16 22 16ZM21.289 23.927C23.483 23.705 25.609 22.92 27.423 21.66C27.661 22.245 27.912 22.837 28.212 23.444C28.646 24.319 29.294 25.184 30.039 26.01C28.534 26.843 26.934 27.485 25.259 27.904L25.006 27.967C24.279 27.488 23.607 26.937 23.017 26.307C22.326 25.568 21.751 24.766 21.289 23.927ZM22.92 37H20.899C20.5 35.044 18.956 33.5 17 33.101V31.08C20.059 31.521 22.479 33.941 22.92 37ZM11.101 39C11.5 40.956 13.044 42.5 15 42.899V44.92C11.941 44.479 9.521 42.059 9.08 39H11.101ZM16 35C17.654 35 19 36.346 19 38C19 39.654 17.654 41 16 41C14.346 41 13 39.654 13 38C13 36.346 14.346 35 16 35ZM17 42.899C18.956 42.5 20.5 40.956 20.899 39H22.92C22.479 42.059 20.059 44.479 17 44.92V42.899ZM15 31.08V33.101C13.044 33.5 11.5 35.044 11.101 37H9.08C9.521 33.941 11.941 31.521 15 31.08ZM16 47C20.963 47 25 42.962 25 38C25 35.975 24.319 34.11 23.186 32.604C24.648 32.054 26.149 31.643 27.666 31.378C29.037 31.783 30.488 32 31.974 32H35.532L39.416 36.66C40.126 37.512 41.169 38 42.277 38C42.555 38 42.824 37.964 43.084 37.906C43.034 38.265 43 38.628 43 39C43 43.411 46.589 47 51 47C52.902 47 54.649 46.33 56.023 45.218C57.073 46.732 57.857 48.065 58.367 49H5.633C6.304 47.769 7.449 45.849 9.061 43.726C10.713 45.724 13.21 47 16 47ZM47.754 61H16.246C12.293 61 8.817 58.587 7.38 55H56.62C55.183 58.587 51.707 61 47.754 61ZM60 53H4C3.448 53 3 52.551 3 52C3 51.449 3.448 51 4 51H60C60.552 51 61 51.449 61 52C61 52.551 60.552 53 60 53Z" fill="#C1121F"/>
<path d="M51 43C53.206 43 55 41.206 55 39H53C53 40.103 52.103 41 51 41C49.897 41 49 40.103 49 39C49 37.897 49.897 37 51 37V35C48.794 35 47 36.794 47 39C47 41.206 48.794 43 51 43Z" fill="#C1121F"/>
<path d="M30 15H32C32 14.204 32.302 13.852 32.759 13.319C33.312 12.674 34 11.872 34 10.335C34 8.798 33.312 7.995 32.759 7.35C32.302 6.817 32 6.465 32 5.668C32 4.871 32.302 4.518 32.76 3.985C33.312 3.34 34 2.537 34 1H32C32 1.797 31.698 2.15 31.24 2.683C30.688 3.328 30 4.131 30 5.668C30 7.205 30.688 8.007 31.24 8.652C31.698 9.186 32 9.538 32 10.335C32 11.131 31.698 11.483 31.241 12.017C30.688 12.662 30 13.464 30 15Z" fill="#C1121F"/>
<path d="M38 20H40C40 19.204 40.302 18.852 40.759 18.319C41.312 17.674 42 16.872 42 15.335C42 13.798 41.312 12.995 40.759 12.35C40.302 11.817 40 11.465 40 10.668C40 9.871 40.302 9.518 40.76 8.985C41.312 8.34 42 7.537 42 6H40C40 6.797 39.698 7.15 39.24 7.683C38.688 8.328 38 9.131 38 10.668C38 12.205 38.688 13.007 39.24 13.652C39.698 14.185 40 14.538 40 15.335C40 16.131 39.698 16.483 39.241 17.017C38.688 17.662 38 18.464 38 20Z" fill="#C1121F"/>
<path d="M47 18H49C49 17.204 49.302 16.852 49.759 16.319C50.312 15.674 51 14.872 51 13.335C51 11.798 50.312 10.995 49.759 10.35C49.302 9.817 49 9.465 49 8.668C49 7.871 49.302 7.518 49.76 6.985C50.312 6.34 51 5.537 51 4H49C49 4.797 48.698 5.15 48.24 5.683C47.688 6.328 47 7.131 47 8.668C47 10.205 47.688 11.007 48.24 11.652C48.698 12.185 49 12.538 49 13.335C49 14.131 48.698 14.483 48.241 15.017C47.688 15.662 47 16.464 47 18Z" fill="#C1121F"/>
<path d="M32 45H30V47H32V45Z" fill="#C1121F"/>
<path d="M34 39H32V41H34V39Z" fill="#C1121F"/>
<path d="M29 34H27V36H29V34Z" fill="#C1121F"/>
<path d="M40 45H38V47H40V45Z" fill="#C1121F"/>
<path d="M38 41H36V43H38V41Z" fill="#C1121F"/>
<path d="M29 41H27V43H29V41Z" fill="#C1121F"/>
<path d="M34 35H32V37H34V35Z" fill="#C1121F"/>
</svg>
