<svg width="86" height="86" viewBox="0 0 86 86" fill="none" xmlns="http://www.w3.org/2000/svg">
<path d="M42.6716 3.6665C21.1474 3.6665 3.66666 21.1374 3.66666 42.6616C3.66666 64.1858 21.1474 81.6665 42.6716 81.6665C64.1958 81.6665 81.6667 64.1858 81.6667 42.6616C81.6667 21.1374 64.1958 3.6665 42.6716 3.6665ZM42.6716 6.18257C62.836 6.18257 79.1505 22.4972 79.1505 42.6616C79.1505 62.826 62.836 79.1504 42.6716 79.1504C22.5072 79.1504 6.18279 62.826 6.18279 42.6616C6.18279 22.4972 22.5072 6.18257 42.6716 6.18257ZM30.9976 17.9868C30.1398 17.9981 29.2712 18.2117 28.4053 18.5348C26.6736 19.1811 24.9459 20.2766 23.6802 21.5423C22.8061 22.4164 22.0301 23.5162 21.4098 24.6801C19.7199 25.3314 18.0327 26.3912 16.7977 27.6263C15.532 28.892 14.4438 30.6196 13.7975 32.3514C13.4744 33.2173 13.2607 34.0858 13.2496 34.9436C13.2395 35.7073 13.4265 36.517 13.9449 37.1698C13.375 38.0334 12.8847 38.9639 12.5345 39.9021C12.2114 40.7681 11.9977 41.6366 11.9866 42.4944C11.9753 43.3523 12.1857 44.2809 12.8687 44.9639C13.5517 45.6469 14.4828 45.8572 15.3406 45.846C16.0879 45.8347 16.8417 45.6544 17.5963 45.3991C16.5969 47.6069 16.0261 50.0482 16.0261 52.6256C16.0261 59.402 19.8807 65.2902 25.5059 68.2359C30.2812 71.1589 35.8963 72.8529 41.9 72.8529C59.2554 72.8529 73.3467 58.764 73.3467 41.4086C73.3467 38.2131 72.878 35.1227 71.9904 32.214L71.9851 32.2165C71.2613 25.9473 66.4541 20.1274 59.0801 19.8717C58.3952 19.849 57.7795 20.0319 57.2397 20.3386C57.1027 19.9928 56.9495 19.6549 56.7679 19.3336C55.8551 17.7188 54.271 16.3808 52.0944 16.3298C49.1627 16.7886 47.7466 16.332 46.4871 15.6725C45.2277 15.0129 44.0992 13.9468 42.2708 13.4733C41.3748 13.2413 40.5269 13.1173 39.7325 13.0995C38.4085 13.0693 37.2342 13.3357 36.2434 13.8808C34.6581 14.753 33.6588 16.2981 33.1338 18.2952C32.4524 18.1346 31.7045 17.9781 30.9976 17.9868ZM39.1505 15.6279C39.8373 15.5803 40.6572 15.662 41.6396 15.9156C42.7484 16.2028 43.719 17.0661 45.3179 17.9034C46.3663 18.4524 48.2357 18.4102 49.9153 18.5054C48.8195 20.5741 47.6824 22.5684 46.2099 23.5033C44.324 24.7004 42.1511 25.0325 39.3741 24.2453C38.246 23.9251 37.0869 23.0631 36.3567 21.997C35.6265 20.9308 35.3354 19.7355 35.622 18.6823C35.9609 17.4368 36.5616 16.5868 37.4599 16.0925C37.9091 15.8453 38.4636 15.6741 39.1505 15.6279ZM52.8811 18.9746C53.5345 19.2165 54.1232 19.7649 54.5765 20.5668C55.1995 21.6689 55.4313 23.144 55.1343 24.2353C54.5017 26.5598 52.1983 27.8849 49.9423 27.2454C48.6444 26.8773 47.7107 26.3985 47.3402 25.7392C49.8048 24.1914 51.5512 21.8875 52.8811 18.9746ZM31.4424 23.046C30.9385 24.3962 29.9648 25.9366 29.0196 26.8817C28.586 27.3154 28.0159 27.7491 27.4077 28.1472C27.4562 27.8025 27.4867 27.4578 27.4691 27.1151C27.4301 26.3612 27.1874 25.5606 26.587 24.9603C26.0747 24.448 25.424 24.2014 24.7687 24.1149C24.9982 23.8235 25.2298 23.5482 25.4616 23.3164C26.4068 22.3712 27.9372 21.3975 29.2874 20.8936C29.9625 20.6415 30.8999 20.2071 31.7353 20.6056C32.1283 21.4458 31.6943 22.3709 31.4424 23.046ZM58.9871 22.3876C65.6178 22.6173 69.575 28.2001 69.575 33.8576C69.575 39.2939 64.6792 44.9291 58.9502 45.308C58.4111 45.3461 57.7634 44.6256 57.7634 43.9048V23.8078C57.7634 23.0858 58.408 22.3675 58.9871 22.3876ZM36.9415 25.8792C36.1083 26.4189 35.4384 27.1784 34.9733 28.0612C34.1976 29.5335 34.3124 31.2164 34.8971 32.6314C35.3288 33.6761 36.016 34.6172 36.8947 35.3318C35.8398 35.1341 34.7556 35.0174 33.6439 35.0174C30.8568 35.0174 28.2295 35.6864 25.8842 36.843C26.0688 36.2171 26.2054 35.5909 26.2135 34.9707C26.2236 34.2066 26.0371 33.4033 25.5181 32.752C25.766 32.3763 25.9968 31.9869 26.2086 31.5897C27.8939 30.9395 29.5625 29.887 30.7936 28.6558C32.0593 27.3901 33.1549 25.66 34.0383 23.674C34.9654 24.4269 35.8907 25.2622 36.9415 25.8792ZM61.9406 26.4935C61.622 26.5086 61.3199 26.6382 61.0953 26.8642L60.2059 27.7463C59.7114 28.2382 59.7114 29.0385 60.2059 29.5303C60.6974 30.0231 61.4957 30.0231 61.9873 29.5303L62.8792 28.6383C63.3672 28.1475 63.3672 27.3549 62.8792 26.8642C62.6318 26.6151 62.2915 26.4806 61.9406 26.4935ZM24.7294 28.6558C24.4423 29.6023 23.8742 30.6966 23.2158 31.6412C23.0974 31.6299 22.9785 31.6186 22.862 31.6186C22.0041 31.6299 21.138 31.8434 20.2721 32.1665C18.6335 32.778 17.0093 33.7979 15.7657 34.9775C15.772 34.5415 15.9049 33.9094 16.1564 33.2354C16.6603 31.8852 17.6364 30.3524 18.5816 29.4072C19.5268 28.462 21.0572 27.4784 22.4074 26.9745C23.0825 26.7224 23.7159 26.4487 24.5513 26.7686C24.9682 27.4332 24.901 28.0901 24.7294 28.6558ZM39.4871 27.6017C40.1319 27.5635 40.9555 27.7275 42.0106 28.2578C42.7621 28.6353 43.359 29.4441 44.4923 30.3832C45.1476 30.9262 46.5409 31.1393 47.64 31.5086C46.5561 32.6882 45.4671 33.9503 44.3252 34.3588C42.7225 34.9322 41.0586 34.8357 39.0768 33.7839C38.3106 33.3774 37.5851 32.5514 37.2191 31.6658C36.8532 30.7802 36.8393 29.9102 37.1921 29.2406C37.6389 28.3925 38.1919 27.9046 38.8998 27.7C39.0768 27.6486 39.2722 27.6146 39.4871 27.6017ZM55.2547 28.4052V43.9048C55.2547 45.9823 56.8707 47.963 59.1173 47.8142C64.2684 47.4737 68.666 44.0092 70.7667 39.5508C70.8062 40.1655 70.8379 40.7836 70.8379 41.4084C70.8379 57.4039 57.8955 70.3365 41.8999 70.3365C40.2324 70.3365 38.6045 70.1812 37.0151 69.9115C45.1183 68.3327 51.2519 61.1844 51.2519 52.6254C51.2519 47.8585 49.3417 43.537 46.2565 40.3641C48.8701 41.3616 51.9034 40.2836 53.2397 37.7473C53.9968 36.3104 54.0456 34.6203 53.5739 33.1229C53.1219 31.6879 52.0748 30.3386 50.4091 29.8843C52.1414 30.0582 53.8933 29.4983 55.2547 28.4052ZM62.174 32.5946C61.4754 32.5918 60.9083 33.159 60.9111 33.8576C60.9136 34.5525 61.4792 35.1134 62.174 35.1107H63.4272C64.122 35.1135 64.6875 34.5525 64.6902 33.8576C64.6927 33.159 64.1258 32.5919 63.4272 32.5946H62.174ZM50.3821 32.6373C50.7172 32.9113 50.9914 33.3235 51.1684 33.8855C51.4473 34.7709 51.3826 35.8735 51.0112 36.5785C50.199 38.1201 48.3368 38.6917 46.8046 37.8784C46.0737 37.4904 45.5429 37.0976 45.1828 36.7261C47.1578 36.018 48.8748 34.5643 50.3821 32.6373ZM14.8934 40.7852C15.3973 39.435 16.3734 37.9047 17.3186 36.9594C18.2638 36.0143 19.804 35.0307 21.1542 34.5268C21.8293 34.2747 22.6037 33.8403 23.444 34.2388C23.8432 35.0791 23.5586 36.0067 23.3067 36.6818C22.8028 38.032 21.8291 39.5723 20.884 40.5175C19.9388 41.4627 18.3985 42.4364 17.0483 42.9402C16.3732 43.1923 15.6718 43.476 14.8315 43.0823C14.4324 42.247 14.6415 41.4603 14.8934 40.7852ZM33.644 37.5344C41.9966 37.5344 48.7457 44.2737 48.7457 52.6263C48.7457 60.9789 41.9966 67.7279 33.644 67.7279C31.1676 67.7279 28.8389 67.1216 26.7787 66.0694C26.6263 65.9757 26.4672 65.8929 26.3167 65.7965L26.2995 65.8267C21.6708 63.2497 18.5447 58.3132 18.5447 52.6293C18.5447 48.6356 20.098 45.0221 22.7919 42.1398C25.6938 39.2243 29.4677 37.5344 33.644 37.5344ZM61.0585 37.8144C60.7373 37.8258 60.4323 37.9577 60.2059 38.1853C59.7179 38.676 59.7179 39.4686 60.2059 39.9593L61.0953 40.8513C61.5872 41.3457 62.3874 41.3457 62.8792 40.8513C63.3672 40.3606 63.3672 39.5679 62.8792 39.0772L61.9873 38.1843C61.7423 37.9375 61.4061 37.8043 61.0585 37.8144ZM36.1601 46.3383C31.3113 46.3383 27.3561 50.2936 27.3561 55.1424C27.3561 59.9912 31.3113 63.9463 36.1601 63.9463C41.0089 63.9463 44.9641 59.9912 44.9641 55.1424C44.9641 50.2936 41.0089 46.3383 36.1601 46.3383ZM66.5207 47.7513C66.2001 47.755 65.8942 47.8873 65.6656 48.1125L63.8817 49.8964C63.3938 50.3872 63.3938 51.1799 63.8817 51.6706C64.3736 52.1651 65.1738 52.1651 65.6656 51.6706L67.4495 49.8964C67.944 49.4046 67.944 48.6043 67.4495 48.1125C67.2029 47.8695 66.8669 47.7388 66.5207 47.7513ZM36.1601 48.8569C39.6491 48.8569 42.448 51.6535 42.448 55.1424C42.448 58.6313 39.6491 61.4303 36.1601 61.4303C32.6712 61.4303 29.8747 58.6313 29.8747 55.1424C29.8747 51.6535 32.6712 48.8569 36.1601 48.8569ZM55.0139 49.9799C54.6932 49.9837 54.3874 50.1163 54.1588 50.3412C53.6643 50.833 53.6643 51.6333 54.1588 52.1251L55.9427 53.8991C56.4334 54.387 57.226 54.387 57.7167 53.8991C58.2047 53.4084 58.2047 52.6158 57.7167 52.1251L55.9427 50.3412C55.696 50.0981 55.36 49.9674 55.0139 49.9799ZM61.0216 53.3314C60.323 53.3286 59.7559 53.8957 59.7586 54.5944V57.113C59.7612 57.8078 60.3268 58.3689 61.0216 58.3662C61.7126 58.3635 62.2721 57.804 62.2748 57.113V54.5944C62.2773 53.8996 61.7164 53.3341 61.0216 53.3314ZM53.7312 56.7026C53.0355 56.6999 52.4696 57.2625 52.4683 57.9582C52.4657 58.6569 53.0326 59.224 53.7312 59.2212H56.2474C56.9431 59.2198 57.5057 58.654 57.503 57.9582C57.5017 57.2653 56.9403 56.7039 56.2474 56.7026H53.7312ZM52.4314 62.1355C52.109 62.1468 51.8029 62.2794 51.5763 62.5088L49.7949 64.283C49.3021 64.7746 49.3021 65.5728 49.7949 66.0643C50.2864 66.5572 51.0847 66.5572 51.5763 66.0643L53.3602 64.283C53.8481 63.7923 53.8481 62.9996 53.3602 62.5088C53.1156 62.2613 52.7793 62.1261 52.4314 62.1355Z" fill="#C1121F"/>
</svg>
