<svg width="43" height="43" viewBox="0 0 43 43" fill="none" xmlns="http://www.w3.org/2000/svg">
<path d="M23.1797 20.4082C22.7161 20.4082 22.3398 20.7845 22.3398 21.248C22.3398 21.7116 22.7161 22.0879 23.1797 22.0879C23.6433 22.0879 24.0195 21.7116 24.0195 21.248C24.0195 20.7845 23.6433 20.4082 23.1797 20.4082Z" fill="#C1121F"/>
<path d="M8.06249 8.39844C7.5994 8.39844 7.22265 8.02168 7.22265 7.55859C7.22265 7.0955 7.5994 6.71875 8.06249 6.71875C8.35996 6.71875 8.67415 6.87059 8.97087 7.15774C9.3042 7.48032 9.83599 7.47142 10.1584 7.13825C10.4809 6.80483 10.4722 6.27321 10.1388 5.95063C9.71262 5.53818 9.28614 5.30496 8.90225 5.17755V4.19922C8.90225 3.73546 8.52625 3.35938 8.06241 3.35938C7.59856 3.35938 7.22256 3.73546 7.22256 4.19922V5.18352C6.24515 5.5302 5.54296 6.46377 5.54296 7.55859C5.54296 8.94786 6.67322 10.0781 8.06249 10.0781C8.52558 10.0781 8.90234 10.4549 8.90234 10.918C8.90234 11.3811 8.52558 11.7578 8.06249 11.7578C7.70363 11.7578 7.31629 11.5321 6.97187 11.1226C6.67339 10.7674 6.14362 10.7216 5.78861 11.0201C5.43353 11.3186 5.38776 11.8483 5.68624 12.2033C6.13522 12.7375 6.66314 13.1096 7.22265 13.2972V14.2773C7.22265 14.7411 7.59865 15.1172 8.06249 15.1172C8.52634 15.1172 8.90234 14.7411 8.90234 14.2773V13.293C9.87983 12.9464 10.582 12.0129 10.582 10.918C10.582 9.5287 9.45176 8.39844 8.06249 8.39844Z" fill="#C1121F"/>
<path d="M23.1797 27.6309H19.8203C19.3565 27.6309 18.9805 28.0069 18.9805 28.4707V31.8301C18.9805 32.2938 19.3565 32.6699 19.8203 32.6699H23.1797C23.6434 32.6699 24.0195 32.2938 24.0195 31.8301V28.4707C24.0195 28.0069 23.6434 27.6309 23.1797 27.6309ZM22.3398 30.9902H20.6602V29.3105H22.3398V30.9902Z" fill="#C1121F"/>
<path d="M29.8984 27.6309H26.5391C26.0753 27.6309 25.6992 28.0069 25.6992 28.4707V31.8301C25.6992 32.2938 26.0753 32.6699 26.5391 32.6699H29.8984C30.3622 32.6699 30.7383 32.2938 30.7383 31.8301V28.4707C30.7383 28.0069 30.3622 27.6309 29.8984 27.6309ZM29.0586 30.9902H27.3789V29.3105H29.0586V30.9902Z" fill="#C1121F"/>
<path d="M23.1797 34.3496H19.8203C19.3565 34.3496 18.9805 34.7257 18.9805 35.1895V38.5488C18.9805 39.0126 19.3565 39.3887 19.8203 39.3887H23.1797C23.6434 39.3887 24.0195 39.0126 24.0195 38.5488V35.1895C24.0195 34.7257 23.6434 34.3496 23.1797 34.3496ZM22.3398 37.709H20.6602V36.0293H22.3398V37.709Z" fill="#C1121F"/>
<path d="M29.8984 34.3496H26.5391C26.0753 34.3496 25.6992 34.7257 25.6992 35.1895V38.5488C25.6992 39.0126 26.0753 39.3887 26.5391 39.3887H29.8984C30.3622 39.3887 30.7383 39.0126 30.7383 38.5488V35.1895C30.7383 34.7257 30.3622 34.3496 29.8984 34.3496ZM29.0586 37.709H27.3789V36.0293H29.0586V37.709Z" fill="#C1121F"/>
<path d="M36.6172 27.6309H33.2578C32.7941 27.6309 32.418 28.0069 32.418 28.4707V38.5488C32.418 39.0126 32.7941 39.3887 33.2578 39.3887H36.6172C37.0809 39.3887 37.457 39.0126 37.457 38.5488V28.4707C37.457 28.0069 37.0809 27.6309 36.6172 27.6309ZM35.7773 37.709H34.0977V29.3105H35.7773V37.709Z" fill="#C1121F"/>
<path d="M36.6172 17.0488H19.8203C19.3565 17.0488 18.9805 17.4249 18.9805 17.8887V25.1113C18.9805 25.5751 19.3565 25.9512 19.8203 25.9512H36.6172C37.0809 25.9512 37.457 25.5751 37.457 25.1113V17.8887C37.457 17.4249 37.0809 17.0488 36.6172 17.0488ZM35.7773 24.2715H20.6602V18.7285H35.7773V24.2715Z" fill="#C1121F"/>
<path d="M38.2969 13.4375H30.7383V8.364C30.7383 7.70649 30.4867 7.0845 30.0305 6.6131L24.3839 0.768289C24.1411 0.517176 23.8427 0.316957 23.5223 0.187285C23.5108 0.182162 23.4992 0.177459 23.4876 0.17284C23.4868 0.172504 23.486 0.172168 23.4852 0.171832C23.1934 0.0577812 22.886 0 22.5716 0H4.70312C3.31386 0 2.18359 1.13026 2.18359 2.51953V35.1895C2.18359 36.5787 3.31386 37.709 4.70312 37.709H15.6211V40.4805C15.6211 41.8697 16.7514 43 18.1406 43H38.2969C39.6861 43 40.8164 41.8697 40.8164 40.4805V15.957C40.8164 14.5678 39.6861 13.4375 38.2969 13.4375ZM24.0195 2.80861L28.823 7.78082C28.9749 7.93778 29.0586 8.1448 29.0586 8.364V8.39844H24.8594C24.3963 8.39844 24.0195 8.02168 24.0195 7.55859V2.80861ZM15.6211 15.957V36.0293H4.70312C4.24004 36.0293 3.86328 35.6525 3.86328 35.1895V2.51953C3.86328 2.05644 4.24004 1.67969 4.70312 1.67969H22.3398V7.55859C22.3398 8.94786 23.4701 10.0781 24.8594 10.0781H29.0586V13.4375H18.1406C16.7514 13.4375 15.6211 14.5678 15.6211 15.957ZM39.1367 40.4805C39.1367 40.9436 38.76 41.3203 38.2969 41.3203H18.1406C17.6775 41.3203 17.3008 40.9436 17.3008 40.4805V15.957C17.3008 15.4939 17.6775 15.1172 18.1406 15.1172H38.2969C38.76 15.1172 39.1367 15.4939 39.1367 15.957V40.4805Z" fill="#C1121F"/>
<path d="M33.2578 20.4082H26.5391C26.0753 20.4082 25.6992 20.7843 25.6992 21.248C25.6992 21.7118 26.0753 22.0879 26.5391 22.0879H33.2578C33.7216 22.0879 34.0977 21.7118 34.0977 21.248C34.0977 20.7843 33.7216 20.4082 33.2578 20.4082Z" fill="#C1121F"/>
<path d="M19.8203 10.0781H13.1016C12.6377 10.0781 12.2617 10.4542 12.2617 10.918C12.2617 11.3817 12.6377 11.7578 13.1016 11.7578H19.8203C20.2841 11.7578 20.6602 11.3817 20.6602 10.918C20.6602 10.4542 20.2841 10.0781 19.8203 10.0781Z" fill="#C1121F"/>
<path d="M19.8203 6.71875H13.1016C12.6377 6.71875 12.2617 7.09483 12.2617 7.55859C12.2617 8.02236 12.6377 8.39844 13.1016 8.39844H19.8203C20.2841 8.39844 20.6602 8.02236 20.6602 7.55859C20.6602 7.09483 20.2841 6.71875 19.8203 6.71875Z" fill="#C1121F"/>
<path d="M13.1016 17.0488H6.38281C5.91897 17.0488 5.54297 17.4249 5.54297 17.8887C5.54297 18.3524 5.91897 18.7285 6.38281 18.7285H13.1016C13.5654 18.7285 13.9414 18.3524 13.9414 17.8887C13.9414 17.4249 13.5654 17.0488 13.1016 17.0488Z" fill="#C1121F"/>
<path d="M8.0625 20.4082H6.38281C5.91897 20.4082 5.54297 20.7843 5.54297 21.248C5.54297 21.7118 5.91897 22.0879 6.38281 22.0879H8.0625C8.52635 22.0879 8.90234 21.7118 8.90234 21.248C8.90234 20.7843 8.52635 20.4082 8.0625 20.4082Z" fill="#C1121F"/>
<path d="M13.1016 20.4082H11.4219C10.958 20.4082 10.582 20.7843 10.582 21.248C10.582 21.7118 10.958 22.0879 11.4219 22.0879H13.1016C13.5654 22.0879 13.9414 21.7118 13.9414 21.248C13.9414 20.7843 13.5654 20.4082 13.1016 20.4082Z" fill="#C1121F"/>
<path d="M8.0625 24.2715H6.38281C5.91897 24.2715 5.54297 24.6476 5.54297 25.1113C5.54297 25.5751 5.91897 25.9512 6.38281 25.9512H8.0625C8.52635 25.9512 8.90234 25.5751 8.90234 25.1113C8.90234 24.6476 8.52635 24.2715 8.0625 24.2715Z" fill="#C1121F"/>
<path d="M13.1016 24.2715H11.4219C10.958 24.2715 10.582 24.6476 10.582 25.1113C10.582 25.5751 10.958 25.9512 11.4219 25.9512H13.1016C13.5654 25.9512 13.9414 25.5751 13.9414 25.1113C13.9414 24.6476 13.5654 24.2715 13.1016 24.2715Z" fill="#C1121F"/>
<path d="M8.0625 27.6309H6.38281C5.91897 27.6309 5.54297 28.0069 5.54297 28.4707C5.54297 28.9345 5.91897 29.3105 6.38281 29.3105H8.0625C8.52635 29.3105 8.90234 28.9345 8.90234 28.4707C8.90234 28.0069 8.52635 27.6309 8.0625 27.6309Z" fill="#C1121F"/>
<path d="M13.1016 27.6309H11.4219C10.958 27.6309 10.582 28.0069 10.582 28.4707C10.582 28.9345 10.958 29.3105 11.4219 29.3105H13.1016C13.5654 29.3105 13.9414 28.9345 13.9414 28.4707C13.9414 28.0069 13.5654 27.6309 13.1016 27.6309Z" fill="#C1121F"/>
<path d="M8.0625 30.9902H6.38281C5.91897 30.9902 5.54297 31.3663 5.54297 31.8301C5.54297 32.2938 5.91897 32.6699 6.38281 32.6699H8.0625C8.52635 32.6699 8.90234 32.2938 8.90234 31.8301C8.90234 31.3663 8.52635 30.9902 8.0625 30.9902Z" fill="#C1121F"/>
<path d="M13.1016 30.9902H11.4219C10.958 30.9902 10.582 31.3663 10.582 31.8301C10.582 32.2938 10.958 32.6699 11.4219 32.6699H13.1016C13.5654 32.6699 13.9414 32.2938 13.9414 31.8301C13.9414 31.3663 13.5654 30.9902 13.1016 30.9902Z" fill="#C1121F"/>
</svg>
